<?xml version="1.0" encoding="utf-8"?>
<!-- Svg Vector Icons : http://www.onlinewebfonts.com/icon -->
<!DOCTYPE svg PUBLIC "-//W3C//DTD SVG 1.1//EN" "http://www.w3.org/Graphics/SVG/1.1/DTD/svg11.dtd">
<svg version="1.1" xmlns="http://www.w3.org/2000/svg" xmlns:xlink="http://www.w3.org/1999/xlink" x="0px" y="0px" viewBox="0 0 1000 1000" enable-background="new 0 0 1000 1000" xml:space="preserve">
<metadata> Svg Vector Icons : http://www.onlinewebfonts.com/icon </metadata>
<g><path d="M987.8,849.2L937,798.4V195.7c0-29.2-23.7-53-53-53H281.3l-53-53h682.2c43.9,0,79.5,35.6,79.5,79.5v662.2C990,837.5,989.2,843.5,987.8,849.2z M592.7,424.4V222.2c0-14.6,11.9-26.5,26.5-26.5c5.6,0,10.5,2.1,14.8,5.1c12.4-2.9,25-5.1,38.2-5.1c102.4,0,185.4,83,185.4,185.4c0,83.6-55.6,153.4-131.6,176.5l-45-45c69-4.6,123.6-61.4,123.6-131.6c0-73.1-59.3-132.4-132.4-132.4c-9.1,0-17.9,1.1-26.5,2.8v225.9L592.7,424.4z M956.3,954c-10.4,10.4-27.1,10.4-37.5,0L44.1,83.4c-10.4-10.4-10.4-27.1,0-37.5s27.1-10.4,37.5,0l874.7,870.5C966.6,926.9,966.6,943.6,956.3,954z M421.2,779.4l-33.6-81.8c-2.2,0.6-4.4,1.4-6.8,1.4H221.9c-0.5,0-0.9-0.3-1.4-0.3l-33.8,80.8c-5.6,13.5-21.2,19.9-34.7,14.2c-13.5-5.6-19.8-21.1-14.2-34.6l133.5-318.9l115.3,115.3l83.6,203.9c5.5,13.5-0.9,29-14.5,34.6C442.2,799.4,426.7,793,421.2,779.4z M305.2,496.3L242.6,646h124L305.2,496.3z M63,804.9c0,29.3,23.7,53,53,53h576.3l53,53H89.5c-43.9,0-79.5-35.6-79.5-79.5V175.6l53,53V804.9z"/></g>
</svg>